# xmcd CD database file
#
# Track frame offsets:
#	150
#	18907
#	38065
#
# Disc length: 849 seconds
#
# Revision: 2
# Processed by: cddbd v1.5.2PL0 Copyright (c) Steve Scherf et al.
# Submitted via: CDex 1.81
#
DISCID=17034f03
DTITLE=Gloria Estefan - Don't Let This Moment End
DYEAR=1998
DGENRE=Latin
TTITLE0=Don't Let This Moment End (Radio Edit)
TTITLE1=Don't Let This Moment End (Ballad Version)
TTITLE2=The 70's 'Moment' Medley Edit
EXTD=YEAR: 1998
EXTT0=
EXTT1=
EXTT2=
PLAYORDER=
